<svg xmlns="http://www.w3.org/2000/svg" xmlns:xlink="http://www.w3.org/1999/xlink" width="500" zoomAndPan="magnify" viewBox="0 0 375 374.999991" height="500" preserveAspectRatio="xMidYMid meet" version="1.0"><defs><clipPath id="035a41f7b8"><path d="M 6.898438 84.617188 L 150.148438 84.617188 L 150.148438 290.117188 L 6.898438 290.117188 Z M 6.898438 84.617188 " clip-rule="nonzero"/></clipPath><clipPath id="504b489b65"><path d="M 150.421875 136.558594 L 257.671875 136.558594 L 257.671875 290.308594 L 150.421875 290.308594 Z M 150.421875 136.558594 " clip-rule="nonzero"/></clipPath><clipPath id="4c612b3f24"><path d="M 270.992188 180.476562 L 347.492188 180.476562 L 347.492188 290.726562 L 270.992188 290.726562 Z M 270.992188 180.476562 " clip-rule="nonzero"/></clipPath></defs><g clip-path="url(#035a41f7b8)"><path fill="#000000" d="M 14.78125 103.78125 C 12.878906 103.429688 11.109375 102.507812 9.71875 101.117188 C 7.914062 99.308594 6.898438 96.859375 6.898438 94.300781 C 6.898438 94.300781 6.898438 94.296875 6.898438 94.296875 C 6.898438 91.742188 7.914062 89.289062 9.71875 87.480469 C 11.527344 85.671875 13.976562 84.65625 16.53125 84.65625 C 40.945312 84.65625 116.101562 84.65625 140.511719 84.65625 C 143.066406 84.65625 145.519531 85.671875 147.324219 87.480469 C 149.132812 89.289062 150.148438 91.742188 150.148438 94.296875 C 150.148438 94.296875 150.148438 94.300781 150.148438 94.300781 C 150.148438 96.859375 149.132812 99.308594 147.324219 101.117188 C 145.9375 102.507812 144.167969 103.429688 142.261719 103.78125 L 127.714844 278.460938 C 127.171875 284.996094 121.710938 290.023438 115.15625 290.023438 L 41.890625 290.023438 C 35.335938 290.023438 29.875 284.996094 29.332031 278.460938 Z M 138.457031 103.941406 L 18.585938 103.941406 L 33.097656 278.144531 C 33.476562 282.722656 37.300781 286.242188 41.890625 286.242188 L 115.15625 286.242188 C 119.746094 286.242188 123.570312 282.722656 123.949219 278.144531 Z M 16.53125 100.164062 L 140.511719 100.164062 C 142.066406 100.164062 143.554688 99.546875 144.65625 98.445312 C 145.753906 97.347656 146.371094 95.855469 146.371094 94.300781 L 146.371094 94.296875 C 146.371094 92.742188 145.753906 91.253906 144.65625 90.152344 C 143.554688 89.054688 142.066406 88.4375 140.511719 88.4375 C 116.101562 88.4375 40.945312 88.4375 16.53125 88.4375 C 14.980469 88.4375 13.488281 89.054688 12.390625 90.152344 C 11.292969 91.253906 10.675781 92.742188 10.675781 94.296875 C 10.675781 94.296875 10.675781 94.300781 10.675781 94.300781 C 10.675781 95.855469 11.292969 97.347656 12.390625 98.445312 C 13.488281 99.546875 14.980469 100.164062 16.53125 100.164062 Z M 16.53125 100.164062 " fill-opacity="1" fill-rule="evenodd"/></g><g clip-path="url(#504b489b65)"><path fill="#000000" d="M 156.324219 150.902344 C 154.898438 150.640625 153.574219 149.949219 152.535156 148.910156 C 151.179688 147.558594 150.421875 145.722656 150.421875 143.8125 C 150.421875 143.808594 150.421875 143.808594 150.421875 143.808594 C 150.421875 141.894531 151.179688 140.058594 152.535156 138.707031 C 153.886719 137.355469 155.722656 136.59375 157.632812 136.59375 C 175.914062 136.59375 232.179688 136.59375 250.457031 136.59375 C 252.371094 136.59375 254.207031 137.355469 255.558594 138.707031 C 256.910156 140.058594 257.671875 141.894531 257.671875 143.808594 C 257.671875 143.808594 257.671875 143.808594 257.671875 143.8125 C 257.671875 145.722656 256.910156 147.558594 255.558594 148.910156 C 254.519531 149.949219 253.195312 150.640625 251.765625 150.902344 L 240.875 281.582031 C 240.46875 286.472656 236.378906 290.234375 231.472656 290.234375 L 176.621094 290.234375 C 171.710938 290.234375 167.625 286.472656 167.21875 281.582031 Z M 248.917969 151.023438 L 159.171875 151.023438 L 170.035156 281.347656 C 170.320312 284.773438 173.183594 287.40625 176.621094 287.40625 L 231.472656 287.40625 C 234.910156 287.40625 237.773438 284.773438 238.058594 281.347656 Z M 157.632812 148.195312 L 250.457031 148.195312 C 251.621094 148.195312 252.738281 147.734375 253.558594 146.910156 C 254.382812 146.089844 254.84375 144.972656 254.84375 143.8125 L 254.84375 143.808594 C 254.84375 142.644531 254.382812 141.527344 253.558594 140.707031 C 252.738281 139.882812 251.621094 139.421875 250.457031 139.421875 C 232.179688 139.421875 175.914062 139.421875 157.632812 139.421875 C 156.472656 139.421875 155.355469 139.882812 154.535156 140.707031 C 153.710938 141.527344 153.25 142.644531 153.25 143.808594 C 153.25 143.808594 153.25 143.808594 153.25 143.8125 C 153.25 144.972656 153.710938 146.089844 154.535156 146.910156 C 155.355469 147.734375 156.472656 148.195312 157.632812 148.195312 Z M 157.632812 148.195312 " fill-opacity="1" fill-rule="evenodd"/></g><g clip-path="url(#4c612b3f24)"><path fill="#000000" d="M 275.203125 190.765625 C 274.183594 190.574219 273.242188 190.082031 272.5 189.335938 C 271.535156 188.363281 270.992188 187.050781 270.992188 185.675781 C 270.992188 184.304688 271.535156 182.988281 272.5 182.015625 C 273.464844 181.046875 274.773438 180.503906 276.136719 180.503906 C 289.175781 180.503906 329.308594 180.503906 342.347656 180.503906 C 343.710938 180.503906 345.019531 181.046875 345.984375 182.015625 C 346.949219 182.988281 347.492188 184.304688 347.492188 185.675781 C 347.492188 187.050781 346.949219 188.363281 345.984375 189.335938 C 345.242188 190.082031 344.296875 190.574219 343.28125 190.765625 L 335.511719 284.472656 C 335.222656 287.980469 332.304688 290.675781 328.804688 290.675781 L 289.679688 290.675781 C 286.179688 290.675781 283.261719 287.980469 282.972656 284.472656 Z M 341.25 190.851562 L 277.234375 190.851562 L 284.980469 284.304688 C 285.183594 286.757812 287.226562 288.648438 289.679688 288.648438 L 328.804688 288.648438 C 331.253906 288.648438 333.296875 286.757812 333.5 284.304688 Z M 276.136719 188.820312 L 342.347656 188.820312 C 343.175781 188.820312 343.972656 188.492188 344.558594 187.902344 C 345.144531 187.3125 345.476562 186.511719 345.476562 185.675781 C 345.476562 184.839844 345.144531 184.042969 344.558594 183.453125 C 343.972656 182.863281 343.175781 182.53125 342.347656 182.53125 C 329.308594 182.53125 289.175781 182.53125 276.136719 182.53125 C 275.308594 182.53125 274.511719 182.863281 273.925781 183.453125 C 273.339844 184.042969 273.007812 184.839844 273.007812 185.675781 C 273.007812 186.511719 273.339844 187.3125 273.925781 187.902344 C 274.511719 188.492188 275.308594 188.820312 276.136719 188.820312 Z M 276.136719 188.820312 " fill-opacity="1" fill-rule="evenodd"/></g></svg>