<svg xmlns="http://www.w3.org/2000/svg" xmlns:xlink="http://www.w3.org/1999/xlink" width="500" zoomAndPan="magnify" viewBox="0 0 375 374.999991" height="500" preserveAspectRatio="xMidYMid meet" version="1.0"><defs><clipPath id="0f84ace43a"><path d="M 21.691406 98.546875 L 352.941406 98.546875 L 352.941406 323.660156 L 21.691406 323.660156 Z M 21.691406 98.546875 " clip-rule="nonzero"/></clipPath><clipPath id="0181c0f409"><path d="M 63 51.433594 L 158 51.433594 L 158 189 L 63 189 Z M 63 51.433594 " clip-rule="nonzero"/></clipPath><clipPath id="954e2ba99e"><path d="M 58.445312 45.257812 L 161.195312 45.257812 L 161.195312 193 L 58.445312 193 Z M 58.445312 45.257812 " clip-rule="nonzero"/></clipPath></defs><path fill="#000000" d="M 238.828125 156.507812 L 239.507812 163.109375 C 241.6875 162.894531 243.945312 162.785156 246.214844 162.785156 C 248.09375 162.785156 250.027344 162.859375 251.964844 163.007812 L 252.488281 156.394531 C 250.378906 156.234375 248.269531 156.152344 246.214844 156.152344 C 243.71875 156.152344 241.234375 156.273438 238.828125 156.507812 " fill-opacity="1" fill-rule="nonzero"/><path fill="#000000" d="M 212.75 164.71875 L 216.179688 170.445312 C 219.730469 168.410156 223.511719 166.761719 227.414062 165.539062 L 225.347656 159.222656 C 220.972656 160.589844 216.734375 162.441406 212.75 164.71875 " fill-opacity="1" fill-rule="nonzero"/><path fill="#000000" d="M 122.109375 255.269531 C 126.582031 254.382812 130.984375 253.132812 135.191406 251.558594 L 132.765625 245.363281 C 128.90625 246.808594 124.863281 247.953125 120.753906 248.773438 L 122.109375 255.269531 " fill-opacity="1" fill-rule="nonzero"/><path fill="#000000" d="M 192.398438 182.453125 L 197.730469 186.550781 C 200.394531 183.238281 203.253906 180.226562 206.222656 177.609375 L 201.679688 172.683594 C 198.421875 175.554688 195.300781 178.839844 192.398438 182.453125 " fill-opacity="1" fill-rule="nonzero"/><path fill="#000000" d="M 95.695312 250 L 95.089844 256.605469 C 98.121094 256.871094 101.152344 257.003906 104.105469 257.003906 C 105.617188 257.003906 107.136719 256.96875 108.625 256.902344 L 108.304688 250.277344 C 106.921875 250.339844 105.507812 250.371094 104.105469 250.371094 C 101.351562 250.371094 98.523438 250.246094 95.695312 250 " fill-opacity="1" fill-rule="nonzero"/><path fill="#000000" d="M 154.304688 233.039062 C 151.027344 235.667969 147.570312 238.03125 144.027344 240.0625 L 147.464844 245.78125 C 151.304688 243.574219 155.054688 241.015625 158.601562 238.171875 L 154.304688 233.039062 " fill-opacity="1" fill-rule="nonzero"/><path fill="#000000" d="M 171.492188 215 C 168.941406 218.425781 166.242188 221.648438 163.464844 224.582031 L 168.441406 229.089844 C 171.398438 225.964844 174.269531 222.539062 176.976562 218.90625 L 171.492188 215 " fill-opacity="1" fill-rule="nonzero"/><path fill="#000000" d="M 68.777344 251.222656 C 73.101562 252.597656 77.46875 253.742188 81.757812 254.632812 L 83.164062 248.144531 C 79.105469 247.300781 74.972656 246.21875 70.875 244.914062 L 68.777344 251.222656 " fill-opacity="1" fill-rule="nonzero"/><path fill="#000000" d="M 288.484375 172.933594 C 292.253906 174.601562 296.117188 176.492188 299.964844 178.546875 L 303.21875 172.730469 C 299.222656 170.589844 295.203125 168.625 291.277344 166.890625 L 288.484375 172.933594 " fill-opacity="1" fill-rule="nonzero"/><path fill="#000000" d="M 264.40625 164.867188 C 268.367188 165.734375 272.476562 166.882812 276.621094 168.289062 L 278.84375 162.023438 C 274.457031 160.535156 270.097656 159.316406 265.890625 158.394531 L 264.40625 164.867188 " fill-opacity="1" fill-rule="nonzero"/><g clip-path="url(#0f84ace43a)"><path fill="#000000" d="M 268.0625 229.277344 L 264.433594 229.507812 L 261.761719 231.976562 L 216.625 273.679688 L 174.691406 147.292969 L 219.308594 109.167969 L 282.046875 111.519531 L 315.066406 179.59375 C 314.941406 179.511719 314.8125 179.433594 314.683594 179.351562 L 311.050781 184.953125 C 314.324219 186.984375 317.589844 189.140625 320.777344 191.367188 L 337.046875 224.898438 Z M 288.574219 101.492188 L 215.699219 98.761719 L 166.996094 140.375 L 154.960938 138.253906 C 153.390625 141.320312 151.671875 144.496094 149.808594 147.765625 L 164.933594 150.4375 L 181.273438 199.679688 C 180.355469 201.351562 179.414062 202.992188 178.464844 204.578125 L 183.941406 207.722656 L 207.09375 277.5 L 137.042969 274.292969 L 134.011719 274.152344 L 131.398438 275.6875 L 75.78125 308.277344 L 56.464844 246.039062 L 58.960938 240.476562 C 57.121094 239.691406 55.476562 238.933594 54.046875 238.246094 L 33.789062 172.96875 L 71.683594 148.457031 C 69.910156 145.359375 68.261719 142.347656 66.742188 139.433594 L 21.691406 168.574219 L 69.824219 323.660156 L 136.574219 284.546875 L 216.035156 288.183594 L 268.710938 239.523438 L 352.941406 234.175781 L 288.574219 101.492188 " fill-opacity="1" fill-rule="nonzero"/></g><g clip-path="url(#0181c0f409)"><path fill="#000000" d="M 84.894531 95.636719 C 84.894531 81.445312 96.378906 69.941406 110.550781 69.941406 C 124.71875 69.941406 136.207031 81.445312 136.207031 95.636719 C 136.207031 109.828125 124.71875 121.332031 110.550781 121.332031 C 96.378906 121.332031 84.894531 109.828125 84.894531 95.636719 Z M 157.628906 98.585938 C 157.628906 72.542969 136.550781 51.429688 110.550781 51.429688 C 84.546875 51.429688 63.464844 72.542969 63.464844 98.585938 C 63.464844 129.007812 110.550781 188.46875 110.550781 188.46875 C 110.550781 188.46875 157.628906 129.007812 157.628906 98.585938 " fill-opacity="1" fill-rule="nonzero"/></g><g clip-path="url(#954e2ba99e)"><path fill="#040404" d="M 109.820312 45.308594 C 138.195312 45.308594 161.195312 68.351562 161.195312 96.777344 C 161.195312 106.667969 158.410156 115.90625 153.582031 123.75 C 147.792969 133.355469 142.003906 142.964844 136.214844 152.574219 C 129.160156 164.058594 123.457031 173.351562 116.40625 184.835938 C 110.1875 194.960938 109.769531 195.210938 103.519531 185.03125 C 96.503906 173.605469 90.605469 164 83.589844 152.574219 C 77.8125 143.074219 72.039062 133.574219 66.261719 124.074219 C 61.3125 116.160156 58.445312 106.804688 58.445312 96.777344 C 58.445312 68.351562 81.445312 45.308594 109.820312 45.308594 Z M 109.820312 71.113281 C 122.542969 71.113281 132.851562 81.445312 132.851562 94.1875 C 132.851562 106.929688 122.542969 117.261719 109.820312 117.261719 C 97.101562 117.261719 86.789062 106.929688 86.789062 94.1875 C 86.789062 81.445312 97.101562 71.113281 109.820312 71.113281 Z M 109.820312 71.113281 " fill-opacity="1" fill-rule="evenodd"/></g></svg>