<svg xmlns="http://www.w3.org/2000/svg" xmlns:xlink="http://www.w3.org/1999/xlink" width="500" zoomAndPan="magnify" viewBox="0 0 375 374.999991" height="500" preserveAspectRatio="xMidYMid meet" version="1.0"><defs><clipPath id="395323401f"><path d="M 18 18.75 L 358.296875 18.75 L 358.296875 356.25 L 18 356.25 Z M 18 18.75 " clip-rule="nonzero"/></clipPath></defs><g clip-path="url(#395323401f)"><path fill="#000000" d="M 160.070312 260.972656 L 148.207031 286.175781 L 138.238281 269.035156 L 118.691406 272.457031 L 132.261719 243.246094 C 133.710938 244.53125 134.515625 246.574219 137.296875 250.824219 L 137.300781 250.828125 C 142.371094 258.5625 151.144531 262.402344 160.070312 260.972656 Z M 187.636719 261.265625 C 195.289062 261.316406 202.5 257.539062 206.898438 250.828125 L 206.910156 250.8125 C 209.75 246.464844 210.519531 244.425781 212.042969 243.152344 C 212.714844 242.589844 213.503906 242.195312 214.589844 241.753906 L 225.507812 267.21875 L 206.070312 263.246094 L 195.597656 280.082031 Z M 179.261719 140.679688 C 190.496094 149.070312 187.949219 148.144531 201.949219 148.925781 C 207.335938 149.230469 211.703125 152.882812 212.917969 158.121094 C 216.128906 171.769531 214.773438 169.417969 224.992188 179.019531 C 228.917969 182.691406 229.914062 188.304688 227.488281 193.113281 C 221.15625 205.621094 221.621094 202.949219 223.296875 216.867188 C 223.921875 222.210938 221.085938 227.148438 216.128906 229.25 C 203.234375 234.773438 205.300781 233.027344 197.632812 244.769531 C 194.6875 249.257812 189.320312 251.21875 184.164062 249.648438 C 170.734375 245.605469 173.445312 245.605469 160.035156 249.648438 C 154.863281 251.21875 149.511719 249.257812 146.566406 244.769531 C 138.878906 233.027344 140.96875 234.773438 128.070312 229.25 C 123.113281 227.148438 120.261719 222.210938 120.902344 216.867188 C 122.5625 202.949219 123.042969 205.621094 116.710938 193.113281 C 114.285156 188.304688 115.265625 182.691406 119.207031 179.019531 C 129.425781 169.417969 128.070312 171.769531 131.265625 158.121094 C 132.496094 152.882812 136.863281 149.230469 142.25 148.925781 C 156.253906 148.144531 153.703125 149.070312 164.9375 140.679688 C 169.253906 137.453125 174.945312 137.453125 179.261719 140.679688 Z M 172.089844 227.644531 C 190.53125 227.644531 205.550781 212.625 205.550781 194.21875 C 205.550781 175.8125 190.53125 160.792969 172.089844 160.792969 C 153.667969 160.792969 138.632812 175.8125 138.632812 194.21875 C 138.632812 212.625 153.667969 227.644531 172.089844 227.644531 Z M 75.238281 186.71875 L 97.386719 186.71875 C 96.960938 190.015625 94.117188 192.597656 90.707031 192.597656 L 81.933594 192.597656 C 78.523438 192.597656 75.667969 190.015625 75.238281 186.71875 Z M 68.320312 169.769531 L 104.320312 169.769531 C 103.890625 173.078125 101.035156 175.652344 97.625 175.652344 L 75.015625 175.652344 C 71.59375 175.652344 68.746094 173.078125 68.320312 169.769531 Z M 61.570312 152.824219 L 111.058594 152.824219 C 110.632812 156.132812 107.789062 158.703125 104.375 158.703125 L 68.265625 158.703125 C 64.839844 158.703125 61.996094 156.132812 61.570312 152.824219 Z M 73.613281 141.757812 L 61.511719 141.757812 C 59.523438 107.796875 44.78125 112.632812 44.78125 89.589844 C 44.78125 66.671875 63.378906 48.089844 86.320312 48.089844 C 109.261719 48.089844 127.859375 66.671875 127.859375 89.589844 C 127.859375 112.632812 113.117188 107.796875 111.128906 141.757812 L 99.027344 141.757812 L 99.027344 105.0625 L 103.152344 105.0625 C 111.5 105.0625 118.335938 98.234375 118.335938 89.894531 C 118.335938 81.535156 111.496094 74.710938 103.152344 74.710938 C 94.785156 74.710938 87.953125 81.535156 87.953125 89.894531 L 87.953125 94 L 84.691406 94 L 84.691406 89.894531 C 84.691406 81.535156 77.855469 74.710938 69.488281 74.710938 C 61.144531 74.710938 54.304688 81.535156 54.304688 89.894531 C 54.304688 98.234375 61.140625 105.0625 69.488281 105.0625 L 73.613281 105.0625 Z M 87.953125 141.757812 L 84.691406 141.757812 L 84.691406 105.0625 L 87.953125 105.0625 Z M 73.613281 94 L 69.488281 94 C 67.230469 94 65.382812 92.152344 65.382812 89.894531 C 65.382812 87.628906 67.230469 85.777344 69.488281 85.777344 C 71.757812 85.777344 73.613281 87.628906 73.613281 89.894531 Z M 99.027344 94 L 99.027344 89.894531 C 99.027344 87.628906 100.882812 85.777344 103.152344 85.777344 C 105.410156 85.777344 107.261719 87.628906 107.261719 89.894531 C 107.261719 92.152344 105.410156 94 103.152344 94 Z M 91.859375 34.058594 C 91.859375 37.113281 89.378906 39.59375 86.320312 39.59375 C 83.261719 39.59375 80.78125 37.113281 80.78125 34.058594 L 80.78125 24.28125 C 80.78125 21.230469 83.261719 18.75 86.320312 18.75 C 89.378906 18.75 91.859375 21.230469 91.859375 24.28125 Z M 59.78125 39.683594 C 61.308594 42.328125 60.398438 45.714844 57.75 47.238281 C 55.101562 48.761719 51.710938 47.851562 50.1875 45.207031 L 45.300781 36.738281 C 43.773438 34.09375 44.683594 30.707031 47.332031 29.183594 C 49.980469 27.65625 53.371094 28.566406 54.898438 31.210938 Z M 34.828125 60.574219 C 37.476562 62.101562 38.382812 65.488281 36.851562 68.132812 C 35.320312 70.777344 31.929688 71.679688 29.285156 70.152344 L 20.808594 65.257812 C 18.160156 63.730469 17.253906 60.34375 18.785156 57.699219 C 20.3125 55.054688 23.703125 54.148438 26.351562 55.679688 Z M 122.4375 45.214844 C 120.90625 47.855469 117.519531 48.761719 114.871094 47.234375 C 112.222656 45.707031 111.316406 42.320312 112.847656 39.675781 L 117.746094 31.207031 C 119.277344 28.5625 122.667969 27.65625 125.316406 29.183594 C 127.960938 30.714844 128.867188 34.101562 127.339844 36.746094 Z M 143.359375 70.152344 C 140.714844 71.679688 137.324219 70.777344 135.792969 68.136719 C 134.261719 65.492188 135.164062 62.105469 137.808594 60.574219 L 146.273438 55.679688 C 148.917969 54.148438 152.308594 55.050781 153.839844 57.695312 C 155.371094 60.339844 154.46875 63.726562 151.824219 65.253906 Z M 241.320312 170.085938 L 248.386719 143.769531 L 267.664062 163.027344 Z M 320.617188 71.613281 L 330.007812 62.230469 C 334.417969 57.800781 341.648438 57.800781 346.054688 62.230469 L 349.285156 65.429688 C 353.695312 69.863281 353.695312 77.082031 349.285156 81.488281 L 339.894531 90.871094 Z M 332.0625 98.695312 L 275.496094 155.203125 L 256.21875 135.945312 L 312.785156 79.4375 Z M 88.339844 259.21875 L 98.757812 286.601562 C 99.074219 287.433594 99.792969 287.953125 100.671875 287.996094 L 129.976562 289.4375 C 131.980469 289.527344 132.789062 292.042969 131.238281 293.28125 L 108.371094 311.648438 C 107.671875 312.1875 107.402344 313.042969 107.628906 313.898438 L 115.324219 342.179688 C 115.863281 344.09375 113.726562 345.644531 112.0625 344.566406 L 87.507812 328.511719 C 86.765625 328.015625 85.863281 328.015625 85.121094 328.511719 L 60.589844 344.566406 C 58.921875 345.644531 56.785156 344.09375 57.300781 342.179688 L 65 313.898438 C 65.226562 313.042969 64.953125 312.1875 64.257812 311.648438 L 41.390625 293.28125 C 39.835938 292.042969 40.648438 289.527344 42.652344 289.4375 L 71.953125 287.996094 C 72.832031 287.953125 73.550781 287.433594 73.867188 286.601562 L 84.289062 259.21875 C 84.984375 257.351562 87.640625 257.351562 88.339844 259.21875 Z M 337.867188 334.894531 C 337.867188 337.351562 336.621094 339.445312 334.472656 340.621094 C 332.324219 341.796875 329.902344 341.730469 327.820312 340.417969 C 325.328125 338.851562 322.820312 337.265625 320.277344 335.714844 L 320.277344 253.964844 C 322.957031 252.414062 325.585938 250.914062 328.109375 249.480469 C 330.207031 248.308594 332.5625 248.324219 334.625 249.535156 C 336.691406 250.742188 337.867188 252.789062 337.867188 255.175781 Z M 348.945312 307.25 L 348.945312 282.820312 C 354.25 284.351562 358.132812 289.242188 358.132812 295.035156 C 358.132812 300.828125 354.25 305.71875 348.945312 307.25 Z M 309.203125 333.242188 C 297.851562 326.59375 285.785156 320.707031 272.40625 317.785156 L 272.40625 272.960938 C 285.375 269.539062 297.824219 262.851562 309.203125 256.351562 Z M 261.328125 316.984375 L 238.691406 316.984375 C 226.832031 316.984375 217.144531 307.289062 217.144531 295.460938 C 217.144531 283.632812 226.832031 273.9375 238.691406 273.9375 L 261.328125 273.9375 Z M 252.265625 328.050781 L 268.25 328.050781 L 268.25 356.25 L 264.105469 356.25 C 257.589844 356.25 252.265625 350.933594 252.265625 344.421875 Z M 60.0625 259.394531 C 61.300781 262.1875 60.03125 265.457031 57.238281 266.691406 C 54.441406 267.925781 51.167969 266.660156 49.933594 263.867188 C 42.648438 247.40625 38.601562 229.203125 38.601562 210.058594 C 38.601562 199.054688 39.941406 188.359375 42.460938 178.125 C 43.191406 175.160156 46.195312 173.34375 49.164062 174.074219 C 52.132812 174.804688 53.949219 177.804688 53.21875 180.769531 C 50.90625 190.15625 49.679688 199.964844 49.679688 210.058594 C 49.679688 227.609375 53.386719 244.300781 60.0625 259.394531 Z M 213.433594 325.183594 C 216.3125 324.152344 219.484375 325.648438 220.519531 328.523438 C 221.554688 331.394531 220.058594 334.566406 217.179688 335.597656 C 203.09375 340.65625 187.910156 343.410156 172.089844 343.410156 C 160.015625 343.410156 148.3125 341.804688 137.183594 338.796875 C 134.234375 338 132.484375 334.957031 133.285156 332.011719 C 134.082031 329.0625 137.125 327.316406 140.078125 328.117188 C 150.285156 330.875 161.015625 332.347656 172.089844 332.347656 C 186.597656 332.347656 200.519531 329.820312 213.433594 325.183594 Z M 288.386719 171.816406 C 287.433594 168.914062 289.011719 165.785156 291.917969 164.828125 C 294.820312 163.875 297.953125 165.453125 298.910156 168.351562 C 303.238281 181.476562 305.582031 195.496094 305.582031 210.058594 C 305.582031 216.28125 305.152344 222.402344 304.324219 228.402344 C 303.90625 231.425781 301.109375 233.542969 298.082031 233.125 C 295.054688 232.710938 292.933594 229.914062 293.351562 226.890625 C 294.109375 221.386719 294.503906 215.769531 294.503906 210.058594 C 294.503906 196.707031 292.355469 183.847656 288.386719 171.816406 Z M 159.609375 88.402344 C 156.566406 88.710938 153.847656 86.496094 153.539062 83.457031 C 153.230469 80.417969 155.449219 77.703125 158.492188 77.394531 C 162.964844 76.941406 167.5 76.707031 172.089844 76.707031 C 202.214844 76.707031 230.019531 86.699219 252.367188 103.539062 C 254.808594 105.375 255.296875 108.847656 253.457031 111.285156 C 251.613281 113.722656 248.140625 114.210938 245.699219 112.371094 C 225.207031 96.929688 199.710938 87.773438 172.089844 87.773438 C 167.878906 87.773438 163.714844 87.988281 159.609375 88.402344 Z M 159.609375 88.402344 " fill-opacity="1" fill-rule="evenodd"/><path fill="#000000" d="M 160.070312 260.972656 L 148.207031 286.175781 L 138.238281 269.035156 L 118.691406 272.457031 L 132.261719 243.246094 C 133.710938 244.53125 134.515625 246.574219 137.296875 250.824219 L 137.300781 250.828125 C 142.371094 258.5625 151.144531 262.402344 160.070312 260.972656 Z M 187.636719 261.265625 C 195.289062 261.316406 202.5 257.539062 206.898438 250.828125 L 206.910156 250.8125 C 209.75 246.464844 210.519531 244.425781 212.042969 243.152344 C 212.714844 242.589844 213.503906 242.195312 214.589844 241.753906 L 225.507812 267.21875 L 206.070312 263.246094 L 195.597656 280.082031 Z M 179.261719 140.679688 C 190.496094 149.070312 187.949219 148.144531 201.949219 148.925781 C 207.335938 149.230469 211.703125 152.882812 212.917969 158.121094 C 216.128906 171.769531 214.773438 169.417969 224.992188 179.019531 C 228.917969 182.691406 229.914062 188.304688 227.488281 193.113281 C 221.15625 205.621094 221.621094 202.949219 223.296875 216.867188 C 223.921875 222.210938 221.085938 227.148438 216.128906 229.25 C 203.234375 234.773438 205.300781 233.027344 197.632812 244.769531 C 194.6875 249.257812 189.320312 251.21875 184.164062 249.648438 C 170.734375 245.605469 173.445312 245.605469 160.035156 249.648438 C 154.863281 251.21875 149.511719 249.257812 146.566406 244.769531 C 138.878906 233.027344 140.96875 234.773438 128.070312 229.25 C 123.113281 227.148438 120.261719 222.210938 120.902344 216.867188 C 122.5625 202.949219 123.042969 205.621094 116.710938 193.113281 C 114.285156 188.304688 115.265625 182.691406 119.207031 179.019531 C 129.425781 169.417969 128.070312 171.769531 131.265625 158.121094 C 132.496094 152.882812 136.863281 149.230469 142.25 148.925781 C 156.253906 148.144531 153.703125 149.070312 164.9375 140.679688 C 169.253906 137.453125 174.945312 137.453125 179.261719 140.679688 Z M 172.089844 227.644531 C 190.53125 227.644531 205.550781 212.625 205.550781 194.21875 C 205.550781 175.8125 190.53125 160.792969 172.089844 160.792969 C 153.667969 160.792969 138.632812 175.8125 138.632812 194.21875 C 138.632812 212.625 153.667969 227.644531 172.089844 227.644531 Z M 75.238281 186.71875 L 97.386719 186.71875 C 96.960938 190.015625 94.117188 192.597656 90.707031 192.597656 L 81.933594 192.597656 C 78.523438 192.597656 75.667969 190.015625 75.238281 186.71875 Z M 68.320312 169.769531 L 104.320312 169.769531 C 103.890625 173.078125 101.035156 175.652344 97.625 175.652344 L 75.015625 175.652344 C 71.59375 175.652344 68.746094 173.078125 68.320312 169.769531 Z M 61.570312 152.824219 L 111.058594 152.824219 C 110.632812 156.132812 107.789062 158.703125 104.375 158.703125 L 68.265625 158.703125 C 64.839844 158.703125 61.996094 156.132812 61.570312 152.824219 Z M 73.613281 141.757812 L 61.511719 141.757812 C 59.523438 107.796875 44.78125 112.632812 44.78125 89.589844 C 44.78125 66.671875 63.378906 48.089844 86.320312 48.089844 C 109.261719 48.089844 127.859375 66.671875 127.859375 89.589844 C 127.859375 112.632812 113.117188 107.796875 111.128906 141.757812 L 99.027344 141.757812 L 99.027344 105.0625 L 103.152344 105.0625 C 111.5 105.0625 118.335938 98.234375 118.335938 89.894531 C 118.335938 81.535156 111.496094 74.710938 103.152344 74.710938 C 94.785156 74.710938 87.953125 81.535156 87.953125 89.894531 L 87.953125 94 L 84.691406 94 L 84.691406 89.894531 C 84.691406 81.535156 77.855469 74.710938 69.488281 74.710938 C 61.144531 74.710938 54.304688 81.535156 54.304688 89.894531 C 54.304688 98.234375 61.140625 105.0625 69.488281 105.0625 L 73.613281 105.0625 Z M 87.953125 141.757812 L 84.691406 141.757812 L 84.691406 105.0625 L 87.953125 105.0625 Z M 73.613281 94 L 69.488281 94 C 67.230469 94 65.382812 92.152344 65.382812 89.894531 C 65.382812 87.628906 67.230469 85.777344 69.488281 85.777344 C 71.757812 85.777344 73.613281 87.628906 73.613281 89.894531 Z M 99.027344 94 L 99.027344 89.894531 C 99.027344 87.628906 100.882812 85.777344 103.152344 85.777344 C 105.410156 85.777344 107.261719 87.628906 107.261719 89.894531 C 107.261719 92.152344 105.410156 94 103.152344 94 Z M 91.859375 34.058594 C 91.859375 37.113281 89.378906 39.59375 86.320312 39.59375 C 83.261719 39.59375 80.78125 37.113281 80.78125 34.058594 L 80.78125 24.28125 C 80.78125 21.230469 83.261719 18.75 86.320312 18.75 C 89.378906 18.75 91.859375 21.230469 91.859375 24.28125 Z M 59.78125 39.683594 C 61.308594 42.328125 60.398438 45.714844 57.75 47.238281 C 55.101562 48.761719 51.710938 47.851562 50.1875 45.207031 L 45.300781 36.738281 C 43.773438 34.09375 44.683594 30.707031 47.332031 29.183594 C 49.980469 27.65625 53.371094 28.566406 54.898438 31.210938 Z M 34.828125 60.574219 C 37.476562 62.101562 38.382812 65.488281 36.851562 68.132812 C 35.320312 70.777344 31.929688 71.679688 29.285156 70.152344 L 20.808594 65.257812 C 18.160156 63.730469 17.253906 60.34375 18.785156 57.699219 C 20.3125 55.054688 23.703125 54.148438 26.351562 55.679688 Z M 122.4375 45.214844 C 120.90625 47.855469 117.519531 48.761719 114.871094 47.234375 C 112.222656 45.707031 111.316406 42.320312 112.847656 39.675781 L 117.746094 31.207031 C 119.277344 28.5625 122.667969 27.65625 125.316406 29.183594 C 127.960938 30.714844 128.867188 34.101562 127.339844 36.746094 Z M 143.359375 70.152344 C 140.714844 71.679688 137.324219 70.777344 135.792969 68.136719 C 134.261719 65.492188 135.164062 62.105469 137.808594 60.574219 L 146.273438 55.679688 C 148.917969 54.148438 152.308594 55.050781 153.839844 57.695312 C 155.371094 60.339844 154.46875 63.726562 151.824219 65.253906 Z M 241.320312 170.085938 L 248.386719 143.769531 L 267.664062 163.027344 Z M 320.617188 71.613281 L 330.007812 62.230469 C 334.417969 57.800781 341.648438 57.800781 346.054688 62.230469 L 349.285156 65.429688 C 353.695312 69.863281 353.695312 77.082031 349.285156 81.488281 L 339.894531 90.871094 Z M 332.0625 98.695312 L 275.496094 155.203125 L 256.21875 135.945312 L 312.785156 79.4375 Z M 88.339844 259.21875 L 98.757812 286.601562 C 99.074219 287.433594 99.792969 287.953125 100.671875 287.996094 L 129.976562 289.4375 C 131.980469 289.527344 132.789062 292.042969 131.238281 293.28125 L 108.371094 311.648438 C 107.671875 312.1875 107.402344 313.042969 107.628906 313.898438 L 115.324219 342.179688 C 115.863281 344.09375 113.726562 345.644531 112.0625 344.566406 L 87.507812 328.511719 C 86.765625 328.015625 85.863281 328.015625 85.121094 328.511719 L 60.589844 344.566406 C 58.921875 345.644531 56.785156 344.09375 57.300781 342.179688 L 65 313.898438 C 65.226562 313.042969 64.953125 312.1875 64.257812 311.648438 L 41.390625 293.28125 C 39.835938 292.042969 40.648438 289.527344 42.652344 289.4375 L 71.953125 287.996094 C 72.832031 287.953125 73.550781 287.433594 73.867188 286.601562 L 84.289062 259.21875 C 84.984375 257.351562 87.640625 257.351562 88.339844 259.21875 Z M 337.867188 334.894531 C 337.867188 337.351562 336.621094 339.445312 334.472656 340.621094 C 332.324219 341.796875 329.902344 341.730469 327.820312 340.417969 C 325.328125 338.851562 322.820312 337.265625 320.277344 335.714844 L 320.277344 253.964844 C 322.957031 252.414062 325.585938 250.914062 328.109375 249.480469 C 330.207031 248.308594 332.5625 248.324219 334.625 249.535156 C 336.691406 250.742188 337.867188 252.789062 337.867188 255.175781 Z M 348.945312 307.25 L 348.945312 282.820312 C 354.25 284.351562 358.132812 289.242188 358.132812 295.035156 C 358.132812 300.828125 354.25 305.71875 348.945312 307.25 Z M 309.203125 333.242188 C 297.851562 326.59375 285.785156 320.707031 272.40625 317.785156 L 272.40625 272.960938 C 285.375 269.539062 297.824219 262.851562 309.203125 256.351562 Z M 261.328125 316.984375 L 238.691406 316.984375 C 226.832031 316.984375 217.144531 307.289062 217.144531 295.460938 C 217.144531 283.632812 226.832031 273.9375 238.691406 273.9375 L 261.328125 273.9375 Z M 252.265625 328.050781 L 268.25 328.050781 L 268.25 356.25 L 264.105469 356.25 C 257.589844 356.25 252.265625 350.933594 252.265625 344.421875 Z M 60.0625 259.394531 C 61.300781 262.1875 60.03125 265.457031 57.238281 266.691406 C 54.441406 267.925781 51.167969 266.660156 49.933594 263.867188 C 42.648438 247.40625 38.601562 229.203125 38.601562 210.058594 C 38.601562 199.054688 39.941406 188.359375 42.460938 178.125 C 43.191406 175.160156 46.195312 173.34375 49.164062 174.074219 C 52.132812 174.804688 53.949219 177.804688 53.21875 180.769531 C 50.90625 190.15625 49.679688 199.964844 49.679688 210.058594 C 49.679688 227.609375 53.386719 244.300781 60.0625 259.394531 Z M 213.433594 325.183594 C 216.3125 324.152344 219.484375 325.648438 220.519531 328.523438 C 221.554688 331.394531 220.058594 334.566406 217.179688 335.597656 C 203.09375 340.65625 187.910156 343.410156 172.089844 343.410156 C 160.015625 343.410156 148.3125 341.804688 137.183594 338.796875 C 134.234375 338 132.484375 334.957031 133.285156 332.011719 C 134.082031 329.0625 137.125 327.316406 140.078125 328.117188 C 150.285156 330.875 161.015625 332.347656 172.089844 332.347656 C 186.597656 332.347656 200.519531 329.820312 213.433594 325.183594 Z M 288.386719 171.816406 C 287.433594 168.914062 289.011719 165.785156 291.917969 164.828125 C 294.820312 163.875 297.953125 165.453125 298.910156 168.351562 C 303.238281 181.476562 305.582031 195.496094 305.582031 210.058594 C 305.582031 216.28125 305.152344 222.402344 304.324219 228.402344 C 303.90625 231.425781 301.109375 233.542969 298.082031 233.125 C 295.054688 232.710938 292.933594 229.914062 293.351562 226.890625 C 294.109375 221.386719 294.503906 215.769531 294.503906 210.058594 C 294.503906 196.707031 292.355469 183.847656 288.386719 171.816406 Z M 159.609375 88.402344 C 156.566406 88.710938 153.847656 86.496094 153.539062 83.457031 C 153.230469 80.417969 155.449219 77.703125 158.492188 77.394531 C 162.964844 76.941406 167.5 76.707031 172.089844 76.707031 C 202.214844 76.707031 230.019531 86.699219 252.367188 103.539062 C 254.808594 105.375 255.296875 108.847656 253.457031 111.285156 C 251.613281 113.722656 248.140625 114.210938 245.699219 112.371094 C 225.207031 96.929688 199.710938 87.773438 172.089844 87.773438 C 167.878906 87.773438 163.714844 87.988281 159.609375 88.402344 Z M 159.609375 88.402344 " fill-opacity="1" fill-rule="evenodd"/></g></svg>